<svg xmlns="http://www.w3.org/2000/svg" viewBox="0 0 32 32" width="32" height="32">
  <defs>
    <linearGradient id="leafGradient" x1="0%" y1="0%" x2="100%" y2="100%">
      <stop offset="0%" style="stop-color:#4ade80;stop-opacity:1" />
      <stop offset="50%" style="stop-color:#22c55e;stop-opacity:1" />
      <stop offset="100%" style="stop-color:#16a34a;stop-opacity:1" />
    </linearGradient>
  </defs>
  
  <!-- Background circle for better visibility -->
  <circle cx="16" cy="16" r="15" fill="#f0fdf4" stroke="#22c55e" stroke-width="1"/>
  
  <!-- Leaf shape -->
  <path d="M16 6 C20 6, 24 10, 24 16 C24 20, 22 22, 20 23 C18 24, 16 24, 16 24 C16 24, 14 24, 12 23 C10 22, 8 20, 8 16 C8 10, 12 6, 16 6 Z" 
        fill="url(#leafGradient)"/>
  
  <!-- Leaf vein -->
  <path d="M16 8 L16 22" stroke="#16a34a" stroke-width="1.5" stroke-linecap="round"/>
  <path d="M16 12 Q18 14, 19 16" stroke="#16a34a" stroke-width="1" stroke-linecap="round" fill="none"/>
  <path d="M16 12 Q14 14, 13 16" stroke="#16a34a" stroke-width="1" stroke-linecap="round" fill="none"/>
  <path d="M16 16 Q18 18, 19 20" stroke="#16a34a" stroke-width="1" stroke-linecap="round" fill="none"/>
  <path d="M16 16 Q14 18, 13 20" stroke="#16a34a" stroke-width="1" stroke-linecap="round" fill="none"/>
</svg>